<?xml version="1.0" encoding="utf-8"?>
<!-- Generator: Adobe Illustrator 15.1.0, SVG Export Plug-In . SVG Version: 6.00 Build 0)  -->
<!DOCTYPE svg PUBLIC "-//W3C//DTD SVG 1.1//EN" "http://www.w3.org/Graphics/SVG/1.1/DTD/svg11.dtd">
<svg version="1.1" id="Layer_1" xmlns="http://www.w3.org/2000/svg" xmlns:xlink="http://www.w3.org/1999/xlink" x="0px" y="0px"
	 width="1920px" height="1080px" viewBox="0 0 1920 1080" enable-background="new 0 0 1920 1080" xml:space="preserve">
<g>
	<path fill="#211A52" d="M189.883,833.177h-0.296c-0.198,0-0.296-0.099-0.494-0.296c-0.099-0.099-0.197-0.197-0.197-0.395v-0.296
		v-50.121c0-0.296-0.197-0.493-0.493-0.592h-0.099h-16.477h-0.296c-0.197,0-0.296-0.099-0.395-0.197l-0.099-0.099
		c0,0,0-0.1-0.099-0.1c-0.099-0.197-0.099-0.395-0.099-0.592v-13.418c0-0.493,0.296-0.888,0.69-0.986h0.296h51.502
		c0.296,0,0.493,0.099,0.69,0.296c0,0,0.099,0.099,0.099,0.197c0.099,0.099,0.198,0.296,0.198,0.493v13.418
		c0,0.296-0.099,0.592-0.296,0.79c-0.099,0.099-0.296,0.197-0.493,0.197h-0.197h-16.477c-0.198,0-0.296,0-0.395,0.099
		c-0.099,0-0.099,0.099-0.197,0.197v0.296v50.121v0.296c-0.099,0.296-0.197,0.395-0.493,0.592c-0.099,0.099-0.296,0.099-0.493,0.099
		H189.883z"/>
	<path fill="#211A52" d="M250.659,767.072c0-0.592,0.395-0.986,0.987-0.986h15.392c0.592,0,0.986,0.395,0.986,0.986v23.778
		c0,0.395,0.198,0.592,0.592,0.592h18.252c0.395,0,0.592-0.197,0.592-0.592v-23.778c0-0.592,0.395-0.986,0.986-0.986h15.392
		c0.592,0,0.987,0.395,0.987,0.986v65.118c0,0.592-0.395,0.986-0.987,0.986h-15.392c-0.592,0-0.986-0.395-0.986-0.986v-24.765
		c0-0.395-0.197-0.592-0.592-0.592h-18.252c-0.395,0-0.592,0.197-0.592,0.592v24.765c0,0.592-0.395,0.986-0.986,0.986h-15.392
		c-0.592,0-0.987-0.395-0.987-0.986V767.072z"/>
	<path fill="#211A52" d="M335.411,767.072c0-0.592,0.395-0.986,0.987-0.986h43.905c0.592,0,0.987,0.395,0.987,0.986V779.8
		c0,0.592-0.395,0.986-0.987,0.986h-26.935c-0.395,0-0.592,0.197-0.592,0.593v10.162c0,0.395,0.198,0.592,0.592,0.592h22.101
		c0.592,0,0.986,0.395,0.986,0.986v12.432c0,0.592-0.395,0.987-0.986,0.987h-22.101c-0.395,0-0.592,0.197-0.592,0.592v10.754
		c0,0.395,0.198,0.592,0.592,0.592h26.935c0.592,0,0.987,0.395,0.987,0.987v12.728c0,0.592-0.395,0.986-0.987,0.986h-43.905
		c-0.592,0-0.987-0.395-0.987-0.986V767.072z"/>
	<path fill="#211A52" d="M453.115,807.229v-40.156c0-0.592,0.395-0.986,0.987-0.986h15.392c0.592,0,0.986,0.395,0.986,0.986v41.241
		c0,6.709,3.75,10.557,9.373,10.557c5.821,0,9.274-3.848,9.274-10.557v-41.241c0-0.592,0.395-0.986,0.987-0.986h15.392
		c0.592,0,0.986,0.395,0.986,0.986v40.156c0,17.857-10.656,27.132-26.639,27.132C463.574,834.36,453.115,825.086,453.115,807.229z"
		/>
	<path fill="#211A52" d="M536.88,767.072c0-0.592,0.395-0.986,0.987-0.986h14.503c0.691,0,1.381,0.296,1.677,0.986l20.226,37.985
		h0.395v-37.985c0-0.592,0.395-0.986,0.987-0.986h13.813c0.592,0,0.986,0.395,0.986,0.986v65.118c0,0.592-0.395,0.986-0.986,0.986
		h-14.503c-0.691,0-1.381-0.296-1.677-0.986l-20.029-37.887h-0.592v37.887c0,0.592-0.395,0.986-0.986,0.986h-13.813
		c-0.592,0-0.987-0.395-0.987-0.986V767.072z"/>
	<path fill="#211A52" d="M621.04,767.072c0-0.592,0.395-0.986,0.987-0.986h15.392c0.592,0,0.986,0.395,0.986,0.986v65.118
		c0,0.592-0.395,0.986-0.986,0.986h-15.392c-0.592,0-0.987-0.395-0.987-0.986V767.072z"/>
	<path fill="#211A52" d="M687.144,833.177c-0.691,0-1.085-0.296-1.283-0.986l-21.41-65.02c-0.198-0.592,0.197-1.085,0.888-1.085
		h16.181c0.691,0,1.085,0.296,1.283,0.986l11.938,40.452h0.296l11.543-40.452c0.197-0.69,0.592-0.986,1.283-0.986h16.082
		c0.691,0,0.987,0.493,0.79,1.085l-21.41,65.02c-0.197,0.69-0.592,0.986-1.283,0.986H687.144z"/>
	<path fill="#211A52" d="M750.782,767.072c0-0.592,0.395-0.986,0.987-0.986h43.905c0.592,0,0.986,0.395,0.986,0.986V779.8
		c0,0.592-0.395,0.986-0.986,0.986h-26.935c-0.395,0-0.592,0.197-0.592,0.593v10.162c0,0.395,0.198,0.592,0.592,0.592h22.101
		c0.592,0,0.986,0.395,0.986,0.986v12.432c0,0.592-0.395,0.987-0.986,0.987h-22.101c-0.395,0-0.592,0.197-0.592,0.592v10.754
		c0,0.395,0.198,0.592,0.592,0.592h26.935c0.592,0,0.986,0.395,0.986,0.987v12.728c0,0.592-0.395,0.986-0.986,0.986h-43.905
		c-0.592,0-0.987-0.395-0.987-0.986V767.072z"/>
	<path fill="#211A52" d="M861.482,833.177c-0.888,0-1.184-0.296-1.48-0.986L849.84,809.3h-6.413c-0.395,0-0.592,0.198-0.592,0.593
		v22.298c0,0.592-0.395,0.986-0.986,0.986h-15.392c-0.592,0-0.987-0.395-0.987-0.986v-65.118c0-0.592,0.395-0.986,0.987-0.986h27.33
		c15.392,0,24.173,8.979,24.173,21.607c0,8.386-3.947,15.193-11.05,18.746l12.333,25.554c0.296,0.592,0,1.184-0.69,1.184H861.482z
		 M860.594,787.891c0-4.342-2.96-7.104-7.893-7.104h-9.274c-0.395,0-0.592,0.197-0.592,0.593v13.023
		c0,0.395,0.198,0.592,0.592,0.592h9.274C857.634,794.994,860.594,792.231,860.594,787.891z"/>
	<path fill="#211A52" d="M904.401,824.79c-0.494-0.395-0.592-1.085-0.099-1.578l8.879-10.458c0.395-0.494,0.987-0.494,1.381-0.1
		c4.045,3.553,10.36,6.71,17.069,6.71c6.216,0,9.472-2.565,9.472-6.314c0-2.861-1.875-4.736-8.485-5.624l-3.552-0.493
		c-14.503-2.072-22.396-8.584-22.396-21.114s9.768-20.917,24.962-20.917c9.274,0,17.957,2.861,23.975,7.4
		c0.493,0.395,0.592,0.888,0.197,1.479l-7.4,10.755c-0.395,0.493-0.888,0.592-1.381,0.296c-4.736-3.157-9.768-5.032-15.096-5.032
		c-4.933,0-7.4,2.368-7.4,5.624c0,2.96,2.171,4.834,8.584,5.624l3.552,0.493c14.701,2.071,22.199,8.584,22.199,21.312
		c0,12.431-9.472,21.508-27.428,21.508C920.483,834.36,909.433,829.724,904.401,824.79z"/>
	<path fill="#211A52" d="M986.687,767.072c0-0.592,0.395-0.986,0.986-0.986h15.392c0.592,0,0.986,0.395,0.986,0.986v65.118
		c0,0.592-0.395,0.986-0.986,0.986h-15.392c-0.592,0-0.986-0.395-0.986-0.986V767.072z"/>
	<path fill="#211A52" d="M1049.435,833.177h-0.296c-0.197,0-0.296-0.099-0.493-0.296c-0.099-0.099-0.197-0.197-0.197-0.395v-0.296
		v-50.121c0-0.296-0.197-0.493-0.493-0.592h-0.099h-16.477h-0.296c-0.197,0-0.297-0.099-0.396-0.197l-0.099-0.099
		c0,0,0-0.1-0.099-0.1c-0.099-0.197-0.099-0.395-0.099-0.592v-13.418c0-0.493,0.296-0.888,0.691-0.986h0.296h51.502
		c0.296,0,0.493,0.099,0.69,0.296c0,0,0.099,0.099,0.099,0.197c0.099,0.099,0.197,0.296,0.197,0.493v13.418
		c0,0.296-0.099,0.592-0.296,0.79c-0.099,0.099-0.296,0.197-0.493,0.197h-0.197h-16.477c-0.197,0-0.296,0-0.395,0.099
		c-0.099,0-0.099,0.099-0.197,0.197v0.296v50.121v0.296c-0.099,0.296-0.197,0.395-0.494,0.592c-0.099,0.099-0.296,0.099-0.493,0.099
		H1049.435z"/>
	<path fill="#211A52" d="M1126.787,833.177c-0.592,0-0.986-0.395-0.986-0.986v-24.962l-20.325-40.058
		c-0.197-0.592,0.099-1.085,0.789-1.085h15.49c0.691,0,1.185,0.296,1.579,0.986l11.247,22.89h0.297l11.05-22.89
		c0.296-0.69,0.888-0.986,1.579-0.986h15.193c0.79,0,0.987,0.493,0.79,1.085l-20.325,40.058v24.962c0,0.592-0.395,0.986-0.986,0.986
		H1126.787z"/>
	<path fill="#211A52" d="M1229.692,767.072c0-0.592,0.395-0.986,0.986-0.986h15.392c0.592,0,0.986,0.395,0.986,0.986v50.121
		c0,0.395,0.197,0.592,0.592,0.592h28.415c0.593,0,0.987,0.395,0.987,0.986v13.419c0,0.592-0.395,0.986-0.987,0.986h-45.385
		c-0.592,0-0.986-0.395-0.986-0.986V767.072z"/>
	<path fill="#211A52" d="M1304.084,767.072c0-0.592,0.395-0.986,0.986-0.986h15.392c0.592,0,0.986,0.395,0.986,0.986v65.118
		c0,0.592-0.395,0.986-0.986,0.986h-15.392c-0.592,0-0.986-0.395-0.986-0.986V767.072z"/>
	<path fill="#211A52" d="M1352.034,767.072c0-0.592,0.395-0.986,0.986-0.986h27.33c14.996,0,21.903,7.202,21.903,17.857
		c0,6.907-3.157,11.741-8.189,14.405v0.197c4.934,1.875,9.373,7.498,9.373,15.293c0,13.122-9.274,19.338-23.383,19.338h-27.034
		c-0.592,0-0.986-0.395-0.986-0.986V767.072z M1376.996,793.021c5.229,0,7.991-2.269,7.991-6.906c0-4.735-2.664-6.906-7.991-6.906
		h-7.006c-0.395,0-0.592,0.197-0.592,0.592v12.629c0,0.395,0.197,0.592,0.592,0.592H1376.996z M1369.99,820.055h7.894
		c5.427,0,8.188-2.664,8.188-7.598c0-4.637-2.762-7.498-8.188-7.498h-7.894c-0.395,0-0.592,0.197-0.592,0.592v13.912
		C1369.398,819.857,1369.596,820.055,1369.99,820.055z"/>
	<path fill="#211A52" d="M1468.357,833.177c-0.888,0-1.184-0.296-1.479-0.986l-10.163-22.891h-6.413
		c-0.395,0-0.592,0.198-0.592,0.593v22.298c0,0.592-0.395,0.986-0.986,0.986h-15.392c-0.592,0-0.986-0.395-0.986-0.986v-65.118
		c0-0.592,0.395-0.986,0.986-0.986h27.33c15.392,0,24.172,8.979,24.172,21.607c0,8.386-3.946,15.193-11.05,18.746l12.333,25.554
		c0.296,0.592,0,1.184-0.69,1.184H1468.357z M1467.47,787.891c0-4.342-2.96-7.104-7.894-7.104h-9.274
		c-0.395,0-0.592,0.197-0.592,0.593v13.023c0,0.395,0.197,0.592,0.592,0.592h9.274C1464.51,794.994,1467.47,792.231,1467.47,787.891
		z"/>
	<path fill="#211A52" d="M1532.884,767.072c0.197-0.592,0.592-0.986,1.282-0.986h16.082c0.69,0,1.086,0.395,1.283,0.986
		l22.692,65.118c0.197,0.592-0.099,0.986-0.69,0.986h-16.28c-0.69,0-1.085-0.395-1.282-0.986l-3.157-10.36h-21.805l-3.157,10.36
		c-0.197,0.592-0.592,0.986-1.282,0.986h-16.181c-0.593,0-0.889-0.395-0.691-0.986L1532.884,767.072z M1548.473,807.426
		l-6.216-20.917h-0.296l-6.513,20.917H1548.473z"/>
	<path fill="#211A52" d="M1636.382,833.177c-0.888,0-1.184-0.296-1.479-0.986l-10.163-22.891h-6.413
		c-0.395,0-0.592,0.198-0.592,0.593v22.298c0,0.592-0.395,0.986-0.986,0.986h-15.392c-0.592,0-0.986-0.395-0.986-0.986v-65.118
		c0-0.592,0.395-0.986,0.986-0.986h27.33c15.392,0,24.172,8.979,24.172,21.607c0,8.386-3.946,15.193-11.05,18.746l12.333,25.554
		c0.296,0.592,0,1.184-0.69,1.184H1636.382z M1635.494,787.891c0-4.342-2.96-7.104-7.894-7.104h-9.274
		c-0.395,0-0.592,0.197-0.592,0.593v13.023c0,0.395,0.197,0.592,0.592,0.592h9.274
		C1632.534,794.994,1635.494,792.231,1635.494,787.891z"/>
	<path fill="#211A52" d="M1695.777,833.177c-0.592,0-0.986-0.395-0.986-0.986v-24.962l-20.325-40.058
		c-0.197-0.592,0.099-1.085,0.789-1.085h15.49c0.691,0,1.185,0.296,1.579,0.986l11.247,22.89h0.297l11.05-22.89
		c0.296-0.69,0.888-0.986,1.579-0.986h15.193c0.79,0,0.987,0.493,0.79,1.085l-20.325,40.058v24.962c0,0.592-0.395,0.986-0.986,0.986
		H1695.777z"/>
	<path fill="#211A52" d="M338.618,906.362c0.197-0.592,0.592-0.986,1.184-0.986h3.552c0.69,0,0.986,0.395,1.184,0.986l23.284,65.118
		c0.197,0.592-0.099,0.986-0.69,0.986h-3.848c-0.69,0-1.085-0.197-1.282-0.986l-5.92-16.478h-29.205l-5.919,16.478
		c-0.296,0.789-0.691,0.986-1.283,0.986h-3.848c-0.592,0-0.888-0.395-0.69-0.986L338.618,906.362z M354.207,949.577l-12.53-35.124
		h-0.296l-12.629,35.124H354.207z"/>
	<path fill="#211A52" d="M417.153,906.362c0.197-0.592,0.592-0.986,1.184-0.986h3.552c0.69,0,0.986,0.395,1.184,0.986l23.284,65.118
		c0.197,0.592-0.099,0.986-0.69,0.986h-3.848c-0.69,0-1.085-0.197-1.282-0.986l-5.92-16.478h-29.205l-5.919,16.478
		c-0.296,0.789-0.691,0.986-1.283,0.986h-3.848c-0.592,0-0.888-0.395-0.69-0.986L417.153,906.362z M432.742,949.577l-12.53-35.124
		h-0.296l-12.629,35.124H432.742z"/>
	<path fill="#211A52" d="M478.423,906.362c0-0.592,0.395-0.986,0.986-0.986h3.651c0.592,0,0.986,0.395,0.986,0.986v60.185
		c0,0.395,0.198,0.592,0.592,0.592h33.151c0.592,0,0.986,0.395,0.986,0.987v3.354c0,0.592-0.395,0.986-0.986,0.986h-38.38
		c-0.592,0-0.986-0.395-0.986-0.986V906.362z"/>
	<path fill="#211A52" d="M550.447,906.362c0-0.592,0.395-0.986,0.986-0.986h22.496c12.728,0,19.535,6.808,19.535,17.364
		c0,8.189-4.144,13.221-10.359,15.096v0.197c4.933,0.986,11.445,6.216,11.445,15.983c0,11.544-7.4,18.45-20.621,18.45h-22.496
		c-0.592,0-0.986-0.395-0.986-0.986V906.362z M573.831,935.665c9.077,0,14.01-5.13,14.01-12.432c0-7.695-4.934-12.53-14.01-12.53
		h-17.167c-0.395,0-0.592,0.197-0.592,0.593v23.777c0,0.395,0.198,0.592,0.592,0.592H573.831z M556.663,967.139h17.661
		c9.57,0,14.602-5.13,14.602-13.023c0-7.893-5.032-13.122-14.602-13.122h-17.661c-0.395,0-0.592,0.197-0.592,0.592v24.962
		C556.071,966.941,556.269,967.139,556.663,967.139z"/>
	<path fill="#211A52" d="M628.588,958.358c-1.184-3.553-1.973-7.894-1.973-19.438c0-11.543,0.79-15.885,1.973-19.437
		c3.256-9.866,10.754-15.096,21.706-15.096c10.853,0,18.352,5.229,21.607,15.096c1.184,3.552,1.973,7.894,1.973,19.437
		c0,11.544-0.789,15.885-1.973,19.438c-3.256,9.866-10.754,15.095-21.607,15.095C639.343,973.453,631.844,968.225,628.588,958.358z
		 M666.475,921.063c-2.466-7.4-7.893-11.347-16.181-11.347c-8.386,0-13.813,3.946-16.279,11.347
		c-0.888,2.664-1.677,7.005-1.677,17.857c0,10.854,0.789,15.194,1.677,17.858c2.466,7.399,7.893,11.347,16.279,11.347
		c8.288,0,13.714-3.947,16.181-11.347c0.888-2.664,1.677-7.005,1.677-17.858C668.152,928.068,667.363,923.728,666.475,921.063z"/>
	<path fill="#211A52" d="M749.056,972.467c-0.592,0-0.888-0.197-1.184-0.888l-14.109-29.106h-0.986h-17.266
		c-0.395,0-0.592,0.198-0.592,0.593v28.415c0,0.592-0.395,0.986-0.986,0.986h-3.651c-0.592,0-0.986-0.395-0.986-0.986v-65.118
		c0-0.592,0.395-0.986,0.986-0.986h22.496c12.629,0,20.423,7.104,20.423,18.549c0,9.274-5.131,15.688-13.714,17.759l14.602,29.698
		c0.395,0.592,0.099,1.085-0.493,1.085H749.056z M747.576,923.925c0-8.387-5.328-13.222-14.898-13.222h-17.167
		c-0.395,0-0.592,0.197-0.592,0.593v25.258c0,0.395,0.198,0.592,0.592,0.592h17.167
		C742.249,937.146,747.576,932.409,747.576,923.925z"/>
	<path fill="#211A52" d="M786.746,938.921c0-11.642,0.79-16.082,1.875-19.437c3.256-9.965,10.952-15.096,21.903-15.096
		s17.759,5.427,21.015,12.432c0.198,0.494,0.198,0.987-0.395,1.283l-3.157,1.578c-0.493,0.197-0.986,0.099-1.283-0.395
		c-3.354-6.117-8.288-9.57-16.279-9.57c-8.288,0-13.912,3.946-16.378,11.347c-0.888,2.565-1.579,6.709-1.579,17.857
		c0,11.149,0.69,15.293,1.579,17.858c2.466,7.399,8.09,11.347,16.378,11.347c8.09,0,13.912-3.849,16.378-11.149
		c0.888-2.565,1.579-6.413,1.579-12.826c0-0.395-0.197-0.592-0.592-0.592h-15.194c-0.592,0-0.986-0.395-0.986-0.986v-3.256
		c0-0.593,0.395-0.987,0.986-0.987h20.423c0.592,0,0.987,0.395,0.987,0.987v4.045c0,6.709-0.789,11.84-1.776,14.898
		c-3.157,9.965-10.952,15.193-21.706,15.193c-10.952,0-18.647-5.13-21.903-15.095C787.536,955.003,786.746,950.563,786.746,938.921z
		"/>
	<path fill="#211A52" d="M918.361,949.38c0,12.629,6.413,18.746,17.069,18.746c10.754,0,17.167-6.117,17.167-18.746v-43.018
		c0-0.592,0.395-0.986,0.986-0.986h3.651c0.592,0,0.986,0.395,0.986,0.986v42.919c0,16.378-8.879,24.172-22.791,24.172
		c-13.813,0-22.693-7.794-22.693-24.172v-42.919c0-0.592,0.395-0.986,0.987-0.986h3.65c0.592,0,0.987,0.395,0.987,0.986V949.38z"/>
	<path fill="#211A52" d="M995.812,906.362c0-0.592,0.395-0.986,0.986-0.986h3.65c0.691,0,1.283,0.197,1.678,0.986l33.447,55.153
		h0.296v-55.153c0-0.592,0.395-0.986,0.986-0.986h3.65c0.592,0,0.986,0.395,0.986,0.986v65.118c0,0.592-0.395,0.986-0.986,0.986
		h-3.848c-0.592,0-1.184-0.197-1.678-0.986l-33.15-55.252h-0.395v55.252c0,0.592-0.395,0.986-0.987,0.986h-3.65
		c-0.592,0-0.986-0.395-0.986-0.986V906.362z"/>
	<path fill="#211A52" d="M1079.773,906.362c0-0.592,0.395-0.986,0.986-0.986h3.65c0.593,0,0.987,0.395,0.987,0.986v65.118
		c0,0.592-0.395,0.986-0.987,0.986h-3.65c-0.592,0-0.986-0.395-0.986-0.986V906.362z"/>
	<path fill="#211A52" d="M1140.353,972.467c-0.592,0-0.888-0.395-1.085-0.986l-22.199-64.724c-0.395-0.888,0-1.381,0.69-1.381h3.453
		c0.888,0,1.185,0.197,1.48,0.986l19.437,56.731h0.197l18.943-56.731c0.296-0.789,0.592-0.986,1.381-0.986h3.552
		c0.691,0,1.086,0.493,0.79,1.381l-22.101,64.724c-0.197,0.592-0.593,0.986-1.185,0.986H1140.353z"/>
	<path fill="#211A52" d="M1198.662,906.362c0-0.592,0.395-0.986,0.986-0.986h38.38c0.593,0,0.987,0.395,0.987,0.986v3.354
		c0,0.592-0.395,0.986-0.987,0.986h-33.15c-0.395,0-0.592,0.197-0.592,0.593v23.876c0,0.395,0.197,0.592,0.592,0.592h28.514
		c0.592,0,0.986,0.395,0.986,0.987v3.354c0,0.592-0.395,0.986-0.986,0.986h-28.514c-0.395,0-0.592,0.197-0.592,0.592v24.863
		c0,0.395,0.197,0.592,0.592,0.592h33.15c0.593,0,0.987,0.395,0.987,0.987v3.354c0,0.592-0.395,0.986-0.987,0.986h-38.38
		c-0.592,0-0.986-0.395-0.986-0.986V906.362z"/>
	<path fill="#211A52" d="M1313.014,972.467c-0.593,0-0.889-0.197-1.185-0.888l-14.108-29.106h-0.987h-17.266
		c-0.395,0-0.592,0.198-0.592,0.593v28.415c0,0.592-0.395,0.986-0.987,0.986h-3.65c-0.592,0-0.986-0.395-0.986-0.986v-65.118
		c0-0.592,0.395-0.986,0.986-0.986h22.495c12.629,0,20.424,7.104,20.424,18.549c0,9.274-5.131,15.688-13.714,17.759l14.602,29.698
		c0.395,0.592,0.099,1.085-0.493,1.085H1313.014z M1311.533,923.925c0-8.387-5.328-13.222-14.898-13.222h-17.167
		c-0.395,0-0.592,0.197-0.592,0.593v25.258c0,0.395,0.197,0.592,0.592,0.592h17.167
		C1306.205,937.146,1311.533,932.409,1311.533,923.925z"/>
	<path fill="#211A52" d="M1350.801,965.659c-0.395-0.395-0.493-0.986-0.099-1.382l2.368-2.96c0.395-0.493,0.986-0.493,1.381-0.099
		c4.44,3.454,11.445,6.907,19.239,6.907c10.755,0,17.365-5.427,17.365-13.715c0-6.61-3.749-11.444-16.082-13.023l-3.059-0.395
		c-13.122-1.677-19.338-7.991-19.338-17.76c0-11.642,8.287-18.845,21.113-18.845c7.4,0,14.504,2.27,19.141,5.624
		c0.493,0.296,0.593,0.888,0.197,1.382l-1.973,3.059c-0.395,0.493-0.888,0.493-1.382,0.197c-5.327-3.256-10.557-4.934-16.279-4.934
		c-9.57,0-15.194,5.328-15.194,13.122c0,6.808,4.342,11.248,15.786,12.728l3.059,0.395c13.616,1.776,19.635,8.091,19.635,18.056
		c0,11.347-8.091,19.437-23.68,19.437C1364.219,973.453,1355.438,969.704,1350.801,965.659z"/>
	<path fill="#211A52" d="M1432.198,906.362c0-0.592,0.395-0.986,0.986-0.986h3.65c0.593,0,0.987,0.395,0.987,0.986v65.118
		c0,0.592-0.395,0.986-0.987,0.986h-3.65c-0.592,0-0.986-0.395-0.986-0.986V906.362z"/>
	<path fill="#211A52" d="M1490.902,972.467c-0.593,0-0.987-0.395-0.987-0.986v-60.185c0-0.396-0.197-0.593-0.592-0.593h-19.338
		c-0.592,0-0.986-0.395-0.986-0.986v-3.354c0-0.592,0.395-0.986,0.986-0.986h45.483c0.593,0,0.987,0.395,0.987,0.986v3.354
		c0,0.592-0.395,0.986-0.987,0.986h-19.338c-0.395,0-0.592,0.197-0.592,0.593v60.185c0,0.592-0.395,0.986-0.986,0.986H1490.902z"/>
	<path fill="#211A52" d="M1561.939,972.467c-0.592,0-0.986-0.395-0.986-0.986v-26.541l-20.127-38.479
		c-0.197-0.493,0.099-1.085,0.789-1.085h3.848c0.789,0,1.086,0.197,1.48,0.986l16.871,32.065h0.296l16.575-32.065
		c0.396-0.789,0.691-0.986,1.48-0.986h3.749c0.789,0,0.986,0.592,0.789,1.085l-20.127,38.479v26.541
		c0,0.592-0.395,0.986-0.986,0.986H1561.939z"/>
</g>
<g>
	<path fill="#211A52" d="M1145.09,478.346c-12.424-5.565-25.393-10.208-46.521-23.073c-59.397-36.2-77.444-90.083-44.061-184.076
		c19.326-54.428,28.599-100.324,23.837-149.838c-0.679-0.447-1.358-0.872-2.039-1.309c-3.105,62.186-26.027,100.846-67.105,166.291
		c-87.018,138.656,1.315,240.266,43.301,271.871C1089.523,539.558,1121.296,512.006,1145.09,478.346z"/>
	<path fill="#211A52" d="M968.893,283.273c67.081-78.968,88.893-115.372,93.425-169.703c-0.725-0.397-1.427-0.845-2.142-1.241
		c-15.541,65.014-54.523,99.462-157.24,167.877c-110.645,73.675-105.675,200.332-77.506,279.17
		c34.318,17.604,73.154,27.602,114.352,27.602c8.78,0,17.452-0.453,26.01-1.338C885.904,464.437,891.443,374.428,968.893,283.273z"
		/>
	<path fill="#211A52" d="M927.885,223.004c74.095-32.147,109.224-80.98,119.381-119.226c-0.635-0.317-1.315-0.601-1.974-0.907
		c-32.261,67.479-96.646,78.73-206.729,93.483c-65.276,8.745-116.042,46.146-146.682,92.441c-2.436,14.129-3.79,28.65-3.79,43.489
		c0,60.157,20.975,115.372,55.922,158.758C740.907,302.085,839.06,261.521,927.885,223.004z"/>
</g>
</svg>
