<?xml version="1.0" encoding="utf-8"?>
<!-- Generator: Adobe Illustrator 15.1.0, SVG Export Plug-In . SVG Version: 6.00 Build 0)  -->
<!DOCTYPE svg PUBLIC "-//W3C//DTD SVG 1.1//EN" "http://www.w3.org/Graphics/SVG/1.1/DTD/svg11.dtd">
<svg version="1.1" id="Layer_1" xmlns="http://www.w3.org/2000/svg" xmlns:xlink="http://www.w3.org/1999/xlink" x="0px" y="0px"
	 width="1920px" height="1080px" viewBox="0 0 1920 1080" enable-background="new 0 0 1920 1080" xml:space="preserve">
<g>
	<path fill="#211A52" d="M124.124,807.229v-40.156c0-0.592,0.395-0.986,0.987-0.986h15.392c0.592,0,0.986,0.395,0.986,0.986v41.241
		c0,6.709,3.75,10.557,9.373,10.557c5.821,0,9.274-3.848,9.274-10.557v-41.241c0-0.592,0.395-0.986,0.987-0.986h15.392
		c0.592,0,0.986,0.395,0.986,0.986v40.156c0,17.857-10.656,27.132-26.639,27.132C134.583,834.36,124.124,825.086,124.124,807.229z"
		/>
	<path fill="#211A52" d="M207.888,767.072c0-0.592,0.395-0.986,0.987-0.986h14.503c0.691,0,1.381,0.296,1.677,0.986l20.226,37.985
		h0.395v-37.985c0-0.592,0.395-0.986,0.987-0.986h13.813c0.592,0,0.986,0.395,0.986,0.986v65.118c0,0.592-0.395,0.986-0.986,0.986
		h-14.503c-0.691,0-1.381-0.296-1.678-0.986l-20.028-37.887h-0.592v37.887c0,0.592-0.395,0.986-0.986,0.986h-13.813
		c-0.592,0-0.987-0.395-0.987-0.986V767.072z"/>
	<path fill="#211A52" d="M292.048,767.072c0-0.592,0.395-0.986,0.987-0.986h15.392c0.592,0,0.986,0.395,0.986,0.986v65.118
		c0,0.592-0.395,0.986-0.986,0.986h-15.392c-0.592,0-0.987-0.395-0.987-0.986V767.072z"/>
	<path fill="#211A52" d="M358.153,833.177c-0.691,0-1.085-0.296-1.283-0.986l-21.41-65.02c-0.198-0.592,0.197-1.085,0.888-1.085
		h16.181c0.691,0,1.085,0.296,1.283,0.986l11.938,40.452h0.296l11.543-40.452c0.197-0.69,0.592-0.986,1.283-0.986h16.082
		c0.691,0,0.987,0.493,0.79,1.085l-21.41,65.02c-0.197,0.69-0.592,0.986-1.283,0.986H358.153z"/>
	<path fill="#211A52" d="M421.791,767.072c0-0.592,0.395-0.986,0.987-0.986h43.905c0.592,0,0.986,0.395,0.986,0.986V779.8
		c0,0.592-0.395,0.986-0.986,0.986h-26.935c-0.395,0-0.592,0.197-0.592,0.593v10.162c0,0.395,0.198,0.592,0.592,0.592h22.101
		c0.592,0,0.986,0.395,0.986,0.986v12.432c0,0.592-0.395,0.987-0.986,0.987h-22.101c-0.395,0-0.592,0.197-0.592,0.592v10.754
		c0,0.395,0.198,0.592,0.592,0.592h26.935c0.592,0,0.986,0.395,0.986,0.987v12.728c0,0.592-0.395,0.986-0.986,0.986h-43.905
		c-0.592,0-0.987-0.395-0.987-0.986V767.072z"/>
	<path fill="#211A52" d="M532.49,833.177c-0.888,0-1.184-0.296-1.48-0.986L520.848,809.3h-6.413c-0.395,0-0.592,0.198-0.592,0.593
		v22.298c0,0.592-0.395,0.986-0.986,0.986h-15.392c-0.592,0-0.987-0.395-0.987-0.986v-65.118c0-0.592,0.395-0.986,0.987-0.986h27.33
		c15.392,0,24.173,8.979,24.173,21.607c0,8.386-3.947,15.193-11.05,18.746l12.333,25.554c0.296,0.592,0,1.184-0.691,1.184H532.49z
		 M531.603,787.891c0-4.342-2.96-7.104-7.893-7.104h-9.274c-0.395,0-0.592,0.197-0.592,0.593v13.023
		c0,0.395,0.198,0.592,0.592,0.592h9.274C528.643,794.994,531.603,792.231,531.603,787.891z"/>
	<path fill="#211A52" d="M575.409,824.79c-0.494-0.395-0.592-1.085-0.099-1.578l8.879-10.458c0.395-0.494,0.987-0.494,1.381-0.1
		c4.045,3.553,10.36,6.71,17.069,6.71c6.216,0,9.472-2.565,9.472-6.314c0-2.861-1.875-4.736-8.485-5.624l-3.552-0.493
		c-14.503-2.072-22.396-8.584-22.396-21.114s9.768-20.917,24.962-20.917c9.274,0,17.957,2.861,23.975,7.4
		c0.493,0.395,0.592,0.888,0.197,1.479l-7.399,10.755c-0.395,0.493-0.888,0.592-1.381,0.296c-4.736-3.157-9.768-5.032-15.096-5.032
		c-4.933,0-7.4,2.368-7.4,5.624c0,2.96,2.171,4.834,8.584,5.624l3.552,0.493c14.701,2.071,22.199,8.584,22.199,21.312
		c0,12.431-9.472,21.508-27.428,21.508C591.491,834.36,580.441,829.724,575.409,824.79z"/>
	<path fill="#211A52" d="M657.694,767.072c0-0.592,0.395-0.986,0.987-0.986h15.392c0.592,0,0.986,0.395,0.986,0.986v65.118
		c0,0.592-0.395,0.986-0.986,0.986h-15.392c-0.592,0-0.987-0.395-0.987-0.986V767.072z"/>
	<path fill="#211A52" d="M720.444,833.177h-0.296c-0.198,0-0.296-0.099-0.494-0.296c-0.099-0.099-0.197-0.197-0.197-0.395v-0.296
		v-50.121c0-0.296-0.197-0.493-0.493-0.592h-0.099h-16.477h-0.296c-0.197,0-0.296-0.099-0.395-0.197l-0.099-0.099
		c0,0,0-0.1-0.099-0.1c-0.099-0.197-0.099-0.395-0.099-0.592v-13.418c0-0.493,0.296-0.888,0.69-0.986h0.296h51.502
		c0.296,0,0.493,0.099,0.69,0.296c0,0,0.099,0.099,0.099,0.197c0.099,0.099,0.198,0.296,0.198,0.493v13.418
		c0,0.296-0.099,0.592-0.296,0.79c-0.099,0.099-0.296,0.197-0.493,0.197h-0.197h-16.477c-0.198,0-0.296,0-0.395,0.099
		c-0.099,0-0.099,0.099-0.197,0.197v0.296v50.121v0.296c-0.099,0.296-0.197,0.395-0.493,0.592c-0.099,0.099-0.296,0.099-0.493,0.099
		H720.444z"/>
	<path fill="#211A52" d="M781.22,767.072c0-0.592,0.395-0.986,0.987-0.986h43.905c0.592,0,0.986,0.395,0.986,0.986V779.8
		c0,0.592-0.395,0.986-0.986,0.986h-26.935c-0.395,0-0.592,0.197-0.592,0.593v10.162c0,0.395,0.198,0.592,0.592,0.592h22.101
		c0.592,0,0.986,0.395,0.986,0.986v12.432c0,0.592-0.395,0.987-0.986,0.987h-22.101c-0.395,0-0.592,0.197-0.592,0.592v10.754
		c0,0.395,0.198,0.592,0.592,0.592h26.935c0.592,0,0.986,0.395,0.986,0.987v12.728c0,0.592-0.395,0.986-0.986,0.986h-43.905
		c-0.592,0-0.987-0.395-0.987-0.986V767.072z"/>
	<path fill="#211A52" d="M870.708,833.177h-0.296c-0.198,0-0.296-0.099-0.494-0.296c-0.099-0.099-0.197-0.197-0.197-0.395v-0.296
		v-50.121c0-0.296-0.197-0.493-0.493-0.592h-0.099h-16.477h-0.296c-0.197,0-0.296-0.099-0.395-0.197l-0.099-0.099
		c0,0,0-0.1-0.099-0.1c-0.099-0.197-0.099-0.395-0.099-0.592v-13.418c0-0.493,0.296-0.888,0.69-0.986h0.296h51.502
		c0.296,0,0.493,0.099,0.69,0.296c0,0,0.099,0.099,0.099,0.197c0.099,0.099,0.198,0.296,0.198,0.493v13.418
		c0,0.296-0.099,0.592-0.296,0.79c-0.099,0.099-0.296,0.197-0.493,0.197h-0.197h-16.477c-0.198,0-0.296,0-0.395,0.099
		c-0.099,0-0.099,0.099-0.197,0.197v0.296v50.121v0.296c-0.099,0.296-0.197,0.395-0.493,0.592c-0.099,0.099-0.296,0.099-0.493,0.099
		H870.708z"/>
	<path fill="#211A52" d="M928.623,824.79c-0.494-0.395-0.592-1.085-0.099-1.578l8.879-10.458c0.395-0.494,0.987-0.494,1.381-0.1
		c4.045,3.553,10.36,6.71,17.069,6.71c6.216,0,9.472-2.565,9.472-6.314c0-2.861-1.875-4.736-8.485-5.624l-3.552-0.493
		c-14.503-2.072-22.396-8.584-22.396-21.114s9.768-20.917,24.962-20.917c9.275,0,17.957,2.861,23.975,7.4
		c0.493,0.395,0.592,0.888,0.197,1.479l-7.399,10.755c-0.395,0.493-0.889,0.592-1.381,0.296c-4.736-3.157-9.769-5.032-15.096-5.032
		c-4.933,0-7.4,2.368-7.4,5.624c0,2.96,2.171,4.834,8.584,5.624l3.552,0.493c14.7,2.071,22.199,8.584,22.199,21.312
		c0,12.431-9.472,21.508-27.428,21.508C944.705,834.36,933.655,829.724,928.623,824.79z"/>
	<path fill="#211A52" d="M1010.908,767.072c0-0.592,0.395-0.986,0.986-0.986h27.33c14.996,0,21.903,7.202,21.903,17.857
		c0,6.907-3.157,11.741-8.189,14.405v0.197c4.934,1.875,9.373,7.498,9.373,15.293c0,13.122-9.274,19.338-23.383,19.338h-27.034
		c-0.592,0-0.986-0.395-0.986-0.986V767.072z M1035.87,793.021c5.229,0,7.991-2.269,7.991-6.906c0-4.735-2.664-6.906-7.991-6.906
		h-7.006c-0.395,0-0.592,0.197-0.592,0.592v12.629c0,0.395,0.197,0.592,0.592,0.592H1035.87z M1028.864,820.055h7.894
		c5.427,0,8.189-2.664,8.189-7.598c0-4.637-2.763-7.498-8.189-7.498h-7.894c-0.395,0-0.592,0.197-0.592,0.592v13.912
		C1028.272,819.857,1028.47,820.055,1028.864,820.055z"/>
	<path fill="#211A52" d="M1091.22,767.072c0-0.592,0.395-0.986,0.986-0.986h15.392c0.592,0,0.986,0.395,0.986,0.986v65.118
		c0,0.592-0.395,0.986-0.986,0.986h-15.392c-0.592,0-0.986-0.395-0.986-0.986V767.072z"/>
	<path fill="#211A52" d="M1139.171,767.072c0-0.592,0.395-0.986,0.986-0.986h27.33c14.996,0,21.903,7.202,21.903,17.857
		c0,6.907-3.157,11.741-8.189,14.405v0.197c4.934,1.875,9.373,7.498,9.373,15.293c0,13.122-9.274,19.338-23.383,19.338h-27.034
		c-0.592,0-0.986-0.395-0.986-0.986V767.072z M1164.133,793.021c5.229,0,7.991-2.269,7.991-6.906c0-4.735-2.664-6.906-7.991-6.906
		h-7.006c-0.395,0-0.592,0.197-0.592,0.592v12.629c0,0.395,0.197,0.592,0.592,0.592H1164.133z M1157.127,820.055h7.894
		c5.427,0,8.188-2.664,8.188-7.598c0-4.637-2.762-7.498-8.188-7.498h-7.894c-0.395,0-0.592,0.197-0.592,0.592v13.912
		C1156.535,819.857,1156.732,820.055,1157.127,820.055z"/>
	<path fill="#211A52" d="M1219.482,767.072c0-0.592,0.395-0.986,0.986-0.986h15.392c0.592,0,0.986,0.395,0.986,0.986v50.121
		c0,0.395,0.197,0.592,0.592,0.592h28.415c0.593,0,0.987,0.395,0.987,0.986v13.419c0,0.592-0.395,0.986-0.987,0.986h-45.385
		c-0.592,0-0.986-0.395-0.986-0.986V767.072z"/>
	<path fill="#211A52" d="M1293.874,767.072c0-0.592,0.395-0.986,0.986-0.986h15.392c0.592,0,0.986,0.395,0.986,0.986v65.118
		c0,0.592-0.395,0.986-0.986,0.986h-15.392c-0.592,0-0.986-0.395-0.986-0.986V767.072z"/>
	<path fill="#211A52" d="M1342.218,817.884c-1.579-5.13-1.974-9.077-1.974-18.253s0.395-13.122,1.974-18.252
		c3.552-10.952,13.319-16.478,25.159-16.478s21.607,5.525,25.159,16.478c1.677,5.13,1.973,9.076,1.973,18.252
		s-0.296,13.123-1.973,18.253c-3.552,10.952-13.319,16.477-25.159,16.477S1345.77,828.836,1342.218,817.884z M1375.961,812.951
		c0.789-2.27,0.986-5.328,0.986-13.32c0-7.991-0.197-11.05-0.986-13.319c-1.185-3.749-4.243-5.92-8.584-5.92
		c-4.342,0-7.4,2.171-8.584,5.92c-0.789,2.27-0.986,5.328-0.986,13.319c0,7.992,0.197,11.051,0.986,13.32
		c1.184,3.749,4.242,5.919,8.584,5.919C1371.718,818.87,1374.776,816.7,1375.961,812.951z"/>
	<path fill="#211A52" d="M1437.132,833.177h-0.296c-0.197,0-0.296-0.099-0.493-0.296c-0.099-0.099-0.197-0.197-0.197-0.395v-0.296
		v-50.121c0-0.296-0.197-0.493-0.493-0.592h-0.099h-16.477h-0.296c-0.197,0-0.297-0.099-0.396-0.197l-0.099-0.099
		c0,0,0-0.1-0.099-0.1c-0.099-0.197-0.099-0.395-0.099-0.592v-13.418c0-0.493,0.296-0.888,0.691-0.986h0.296h51.502
		c0.296,0,0.493,0.099,0.69,0.296c0,0,0.099,0.099,0.099,0.197c0.099,0.099,0.197,0.296,0.197,0.493v13.418
		c0,0.296-0.099,0.592-0.296,0.79c-0.099,0.099-0.296,0.197-0.493,0.197h-0.197h-16.477c-0.197,0-0.296,0-0.395,0.099
		c-0.099,0-0.099,0.099-0.197,0.197v0.296v50.121v0.296c-0.099,0.296-0.197,0.395-0.494,0.592c-0.099,0.099-0.296,0.099-0.493,0.099
		H1437.132z"/>
	<path fill="#211A52" d="M1497.909,767.072c0-0.592,0.395-0.986,0.986-0.986h43.905c0.592,0,0.986,0.395,0.986,0.986V779.8
		c0,0.592-0.395,0.986-0.986,0.986h-26.936c-0.395,0-0.592,0.197-0.592,0.593v10.162c0,0.395,0.197,0.592,0.592,0.592h22.101
		c0.593,0,0.987,0.395,0.987,0.986v12.432c0,0.592-0.395,0.987-0.987,0.987h-22.101c-0.395,0-0.592,0.197-0.592,0.592v10.754
		c0,0.395,0.197,0.592,0.592,0.592h26.936c0.592,0,0.986,0.395,0.986,0.987v12.728c0,0.592-0.395,0.986-0.986,0.986h-43.905
		c-0.592,0-0.986-0.395-0.986-0.986V767.072z"/>
	<path fill="#211A52" d="M1572.597,767.072c0-0.592,0.395-0.986,0.986-0.986h15.392c0.592,0,0.986,0.395,0.986,0.986v26.244
		l19.239-26.343c0.493-0.592,0.889-0.888,1.678-0.888h17.364c0.79,0,0.987,0.69,0.593,1.282l-20.029,25.948l21.213,38.775
		c0.296,0.493,0.099,1.085-0.592,1.085h-17.661c-0.888,0-1.282-0.296-1.578-0.888l-13.023-25.258l-7.203,9.57v15.589
		c0,0.592-0.395,0.986-0.986,0.986h-15.392c-0.592,0-0.986-0.395-0.986-0.986V767.072z"/>
	<path fill="#211A52" d="M1657.151,767.072c0-0.592,0.395-0.986,0.986-0.986h43.905c0.592,0,0.986,0.395,0.986,0.986V779.8
		c0,0.592-0.395,0.986-0.986,0.986h-26.936c-0.395,0-0.592,0.197-0.592,0.593v10.162c0,0.395,0.197,0.592,0.592,0.592h22.101
		c0.593,0,0.987,0.395,0.987,0.986v12.432c0,0.592-0.395,0.987-0.987,0.987h-22.101c-0.395,0-0.592,0.197-0.592,0.592v10.754
		c0,0.395,0.197,0.592,0.592,0.592h26.936c0.592,0,0.986,0.395,0.986,0.987v12.728c0,0.592-0.395,0.986-0.986,0.986h-43.905
		c-0.592,0-0.986-0.395-0.986-0.986V767.072z"/>
	<path fill="#211A52" d="M1746.638,833.177h-0.296c-0.197,0-0.296-0.099-0.493-0.296c-0.099-0.099-0.197-0.197-0.197-0.395v-0.296
		v-50.121c0-0.296-0.197-0.493-0.493-0.592h-0.099h-16.477h-0.296c-0.197,0-0.297-0.099-0.396-0.197l-0.099-0.099
		c0,0,0-0.1-0.099-0.1c-0.099-0.197-0.099-0.395-0.099-0.592v-13.418c0-0.493,0.296-0.888,0.691-0.986h0.296h51.502
		c0.296,0,0.493,0.099,0.69,0.296c0,0,0.099,0.099,0.099,0.197c0.099,0.099,0.197,0.296,0.197,0.493v13.418
		c0,0.296-0.099,0.592-0.296,0.79c-0.099,0.099-0.296,0.197-0.493,0.197h-0.197h-16.477c-0.197,0-0.296,0-0.395,0.099
		c-0.099,0-0.099,0.099-0.197,0.197v0.296v50.121v0.296c-0.099,0.296-0.197,0.395-0.494,0.592c-0.099,0.099-0.296,0.099-0.493,0.099
		H1746.638z"/>
	<path fill="#211A52" d="M300.682,906.362c0.197-0.592,0.592-0.986,1.184-0.986h3.552c0.69,0,0.986,0.395,1.184,0.986l23.284,65.118
		c0.197,0.592-0.099,0.986-0.69,0.986h-3.848c-0.69,0-1.085-0.197-1.282-0.986l-5.92-16.478h-29.205l-5.919,16.478
		c-0.296,0.789-0.691,0.986-1.283,0.986h-3.848c-0.592,0-0.888-0.395-0.69-0.986L300.682,906.362z M316.271,949.577l-12.53-35.124
		h-0.296l-12.629,35.124H316.271z"/>
	<path fill="#211A52" d="M379.218,906.362c0.197-0.592,0.592-0.986,1.184-0.986h3.552c0.69,0,0.986,0.395,1.184,0.986l23.284,65.118
		c0.197,0.592-0.099,0.986-0.69,0.986h-3.848c-0.69,0-1.085-0.197-1.282-0.986l-5.92-16.478h-29.205l-5.919,16.478
		c-0.296,0.789-0.691,0.986-1.283,0.986h-3.848c-0.592,0-0.888-0.395-0.69-0.986L379.218,906.362z M394.807,949.577l-12.53-35.124
		h-0.296l-12.629,35.124H394.807z"/>
	<path fill="#211A52" d="M440.487,906.362c0-0.592,0.395-0.986,0.986-0.986h3.651c0.592,0,0.986,0.395,0.986,0.986v60.185
		c0,0.395,0.198,0.592,0.592,0.592h33.151c0.592,0,0.986,0.395,0.986,0.987v3.354c0,0.592-0.395,0.986-0.986,0.986h-38.38
		c-0.592,0-0.986-0.395-0.986-0.986V906.362z"/>
	<path fill="#211A52" d="M512.512,906.362c0-0.592,0.395-0.986,0.986-0.986h22.496c12.728,0,19.535,6.808,19.535,17.364
		c0,8.189-4.144,13.221-10.359,15.096v0.197c4.933,0.986,11.445,6.216,11.445,15.983c0,11.544-7.4,18.45-20.621,18.45h-22.496
		c-0.592,0-0.986-0.395-0.986-0.986V906.362z M535.895,935.665c9.077,0,14.01-5.13,14.01-12.432c0-7.695-4.934-12.53-14.01-12.53
		h-17.167c-0.395,0-0.592,0.197-0.592,0.593v23.777c0,0.395,0.198,0.592,0.592,0.592H535.895z M518.728,967.139h17.661
		c9.57,0,14.602-5.13,14.602-13.023c0-7.893-5.032-13.122-14.602-13.122h-17.661c-0.395,0-0.592,0.197-0.592,0.592v24.962
		C518.135,966.941,518.333,967.139,518.728,967.139z"/>
	<path fill="#211A52" d="M590.653,958.358c-1.184-3.553-1.973-7.894-1.973-19.438c0-11.543,0.79-15.885,1.973-19.437
		c3.256-9.866,10.754-15.096,21.706-15.096c10.853,0,18.352,5.229,21.607,15.096c1.184,3.552,1.973,7.894,1.973,19.437
		c0,11.544-0.789,15.885-1.973,19.438c-3.256,9.866-10.754,15.095-21.607,15.095C601.407,973.453,593.909,968.225,590.653,958.358z
		 M628.54,921.063c-2.466-7.4-7.893-11.347-16.181-11.347c-8.386,0-13.813,3.946-16.279,11.347
		c-0.888,2.664-1.677,7.005-1.677,17.857c0,10.854,0.789,15.194,1.677,17.858c2.466,7.399,7.893,11.347,16.279,11.347
		c8.288,0,13.714-3.947,16.181-11.347c0.888-2.664,1.677-7.005,1.677-17.858C630.217,928.068,629.428,923.728,628.54,921.063z"/>
	<path fill="#211A52" d="M711.121,972.467c-0.592,0-0.888-0.197-1.184-0.888l-14.109-29.106h-0.986h-17.266
		c-0.395,0-0.592,0.198-0.592,0.593v28.415c0,0.592-0.395,0.986-0.986,0.986h-3.651c-0.592,0-0.986-0.395-0.986-0.986v-65.118
		c0-0.592,0.395-0.986,0.986-0.986h22.496c12.629,0,20.423,7.104,20.423,18.549c0,9.274-5.131,15.688-13.714,17.759l14.602,29.698
		c0.395,0.592,0.099,1.085-0.493,1.085H711.121z M709.641,923.925c0-8.387-5.328-13.222-14.898-13.222h-17.167
		c-0.395,0-0.592,0.197-0.592,0.593v25.258c0,0.395,0.198,0.592,0.592,0.592h17.167
		C704.313,937.146,709.641,932.409,709.641,923.925z"/>
	<path fill="#211A52" d="M748.811,938.921c0-11.642,0.79-16.082,1.875-19.437c3.256-9.965,10.952-15.096,21.903-15.096
		s17.759,5.427,21.015,12.432c0.198,0.494,0.198,0.987-0.395,1.283l-3.157,1.578c-0.493,0.197-0.986,0.099-1.283-0.395
		c-3.354-6.117-8.288-9.57-16.279-9.57c-8.288,0-13.912,3.946-16.378,11.347c-0.888,2.565-1.579,6.709-1.579,17.857
		c0,11.149,0.69,15.293,1.579,17.858c2.466,7.399,8.09,11.347,16.378,11.347c8.09,0,13.912-3.849,16.378-11.149
		c0.888-2.565,1.579-6.413,1.579-12.826c0-0.395-0.197-0.592-0.592-0.592H774.66c-0.592,0-0.986-0.395-0.986-0.986v-3.256
		c0-0.593,0.395-0.987,0.986-0.987h20.423c0.592,0,0.987,0.395,0.987,0.987v4.045c0,6.709-0.789,11.84-1.776,14.898
		c-3.157,9.965-10.952,15.193-21.706,15.193c-10.952,0-18.647-5.13-21.903-15.095C749.6,955.003,748.811,950.563,748.811,938.921z"
		/>
	<path fill="#211A52" d="M880.426,949.38c0,12.629,6.413,18.746,17.069,18.746c10.754,0,17.167-6.117,17.167-18.746v-43.018
		c0-0.592,0.395-0.986,0.986-0.986h3.651c0.592,0,0.986,0.395,0.986,0.986v42.919c0,16.378-8.879,24.172-22.791,24.172
		c-13.813,0-22.693-7.794-22.693-24.172v-42.919c0-0.592,0.395-0.986,0.987-0.986h3.65c0.592,0,0.987,0.395,0.987,0.986V949.38z"/>
	<path fill="#211A52" d="M957.876,906.362c0-0.592,0.395-0.986,0.987-0.986h3.65c0.69,0,1.283,0.197,1.678,0.986l33.446,55.153
		h0.296v-55.153c0-0.592,0.395-0.986,0.986-0.986h3.651c0.592,0,0.986,0.395,0.986,0.986v65.118c0,0.592-0.395,0.986-0.986,0.986
		h-3.849c-0.592,0-1.184-0.197-1.677-0.986l-33.151-55.252H963.5v55.252c0,0.592-0.395,0.986-0.986,0.986h-3.65
		c-0.592,0-0.987-0.395-0.987-0.986V906.362z"/>
	<path fill="#211A52" d="M1041.838,906.362c0-0.592,0.395-0.986,0.986-0.986h3.65c0.593,0,0.987,0.395,0.987,0.986v65.118
		c0,0.592-0.395,0.986-0.987,0.986h-3.65c-0.592,0-0.986-0.395-0.986-0.986V906.362z"/>
	<path fill="#211A52" d="M1102.417,972.467c-0.592,0-0.888-0.395-1.085-0.986l-22.199-64.724c-0.395-0.888,0-1.381,0.69-1.381h3.453
		c0.888,0,1.185,0.197,1.48,0.986l19.437,56.731h0.197l18.943-56.731c0.296-0.789,0.592-0.986,1.381-0.986h3.552
		c0.691,0,1.086,0.493,0.79,1.381l-22.101,64.724c-0.197,0.592-0.593,0.986-1.185,0.986H1102.417z"/>
	<path fill="#211A52" d="M1160.727,906.362c0-0.592,0.395-0.986,0.986-0.986h38.38c0.593,0,0.987,0.395,0.987,0.986v3.354
		c0,0.592-0.395,0.986-0.987,0.986h-33.15c-0.395,0-0.592,0.197-0.592,0.593v23.876c0,0.395,0.197,0.592,0.592,0.592h28.514
		c0.592,0,0.986,0.395,0.986,0.987v3.354c0,0.592-0.395,0.986-0.986,0.986h-28.514c-0.395,0-0.592,0.197-0.592,0.592v24.863
		c0,0.395,0.197,0.592,0.592,0.592h33.15c0.593,0,0.987,0.395,0.987,0.987v3.354c0,0.592-0.395,0.986-0.987,0.986h-38.38
		c-0.592,0-0.986-0.395-0.986-0.986V906.362z"/>
	<path fill="#211A52" d="M1275.078,972.467c-0.593,0-0.889-0.197-1.185-0.888l-14.108-29.106h-0.987h-17.266
		c-0.395,0-0.592,0.198-0.592,0.593v28.415c0,0.592-0.395,0.986-0.987,0.986h-3.65c-0.592,0-0.986-0.395-0.986-0.986v-65.118
		c0-0.592,0.395-0.986,0.986-0.986h22.495c12.629,0,20.424,7.104,20.424,18.549c0,9.274-5.131,15.688-13.714,17.759l14.602,29.698
		c0.395,0.592,0.099,1.085-0.493,1.085H1275.078z M1273.598,923.925c0-8.387-5.328-13.222-14.898-13.222h-17.167
		c-0.395,0-0.592,0.197-0.592,0.593v25.258c0,0.395,0.197,0.592,0.592,0.592h17.167
		C1268.27,937.146,1273.598,932.409,1273.598,923.925z"/>
	<path fill="#211A52" d="M1312.865,965.659c-0.395-0.395-0.493-0.986-0.099-1.382l2.368-2.96c0.395-0.493,0.986-0.493,1.381-0.099
		c4.44,3.454,11.445,6.907,19.239,6.907c10.755,0,17.365-5.427,17.365-13.715c0-6.61-3.749-11.444-16.082-13.023l-3.059-0.395
		c-13.122-1.677-19.338-7.991-19.338-17.76c0-11.642,8.287-18.845,21.113-18.845c7.4,0,14.504,2.27,19.141,5.624
		c0.493,0.296,0.593,0.888,0.197,1.382l-1.973,3.059c-0.395,0.493-0.888,0.493-1.382,0.197c-5.327-3.256-10.557-4.934-16.279-4.934
		c-9.57,0-15.194,5.328-15.194,13.122c0,6.808,4.342,11.248,15.786,12.728l3.059,0.395c13.616,1.776,19.635,8.091,19.635,18.056
		c0,11.347-8.091,19.437-23.68,19.437C1326.283,973.453,1317.502,969.704,1312.865,965.659z"/>
	<path fill="#211A52" d="M1394.263,906.362c0-0.592,0.395-0.986,0.986-0.986h3.65c0.593,0,0.987,0.395,0.987,0.986v65.118
		c0,0.592-0.395,0.986-0.987,0.986h-3.65c-0.592,0-0.986-0.395-0.986-0.986V906.362z"/>
	<path fill="#211A52" d="M1452.967,972.467c-0.593,0-0.987-0.395-0.987-0.986v-60.185c0-0.396-0.197-0.593-0.592-0.593h-19.338
		c-0.592,0-0.986-0.395-0.986-0.986v-3.354c0-0.592,0.395-0.986,0.986-0.986h45.483c0.593,0,0.987,0.395,0.987,0.986v3.354
		c0,0.592-0.395,0.986-0.987,0.986h-19.338c-0.395,0-0.592,0.197-0.592,0.593v60.185c0,0.592-0.395,0.986-0.986,0.986H1452.967z"/>
	<path fill="#211A52" d="M1509.698,906.362c0-0.592,0.395-0.986,0.986-0.986h38.38c0.593,0,0.987,0.395,0.987,0.986v3.354
		c0,0.592-0.395,0.986-0.987,0.986h-33.15c-0.395,0-0.592,0.197-0.592,0.593v23.876c0,0.395,0.197,0.592,0.592,0.592h28.514
		c0.592,0,0.986,0.395,0.986,0.987v3.354c0,0.592-0.395,0.986-0.986,0.986h-28.514c-0.395,0-0.592,0.197-0.592,0.592v24.863
		c0,0.395,0.197,0.592,0.592,0.592h33.15c0.593,0,0.987,0.395,0.987,0.987v3.354c0,0.592-0.395,0.986-0.987,0.986h-38.38
		c-0.592,0-0.986-0.395-0.986-0.986V906.362z"/>
	<path fill="#211A52" d="M1599.088,972.467c-0.593,0-0.987-0.395-0.987-0.986v-60.185c0-0.396-0.197-0.593-0.592-0.593h-19.338
		c-0.592,0-0.986-0.395-0.986-0.986v-3.354c0-0.592,0.395-0.986,0.986-0.986h45.483c0.593,0,0.987,0.395,0.987,0.986v3.354
		c0,0.592-0.395,0.986-0.987,0.986h-19.338c-0.395,0-0.592,0.197-0.592,0.593v60.185c0,0.592-0.395,0.986-0.986,0.986H1599.088z"/>
</g>
<g>
	<path fill="#211A52" d="M1145.09,478.346c-12.424-5.565-25.393-10.208-46.521-23.073c-59.397-36.2-77.444-90.083-44.061-184.076
		c19.326-54.428,28.599-100.324,23.837-149.838c-0.679-0.447-1.358-0.872-2.039-1.309c-3.105,62.186-26.027,100.846-67.105,166.291
		c-87.018,138.656,1.315,240.266,43.301,271.871C1089.523,539.558,1121.296,512.006,1145.09,478.346z"/>
	<path fill="#211A52" d="M968.893,283.273c67.081-78.968,88.893-115.372,93.425-169.703c-0.725-0.397-1.427-0.845-2.142-1.241
		c-15.541,65.014-54.523,99.462-157.24,167.877c-110.645,73.675-105.675,200.332-77.506,279.17
		c34.318,17.604,73.154,27.602,114.352,27.602c8.78,0,17.452-0.453,26.01-1.338C885.904,464.437,891.443,374.428,968.893,283.273z"
		/>
	<path fill="#211A52" d="M927.885,223.004c74.095-32.147,109.224-80.98,119.381-119.226c-0.635-0.317-1.315-0.601-1.974-0.907
		c-32.261,67.479-96.646,78.73-206.729,93.483c-65.276,8.745-116.042,46.146-146.682,92.441c-2.436,14.129-3.79,28.65-3.79,43.489
		c0,60.157,20.975,115.372,55.922,158.758C740.907,302.085,839.06,261.521,927.885,223.004z"/>
</g>
</svg>
